<?xml version="1.0" standalone="no"?>
<!DOCTYPE svg PUBLIC "-//W3C//DTD SVG 20010904//EN"
 "http://www.w3.org/TR/2001/REC-SVG-20010904/DTD/svg10.dtd">
<svg version="1.0" xmlns="http://www.w3.org/2000/svg"
 width="235.000000pt" height="235.000000pt" viewBox="0 0 235.000000 235.000000"
 preserveAspectRatio="xMidYMid meet">
<metadata>
Created by potrace 1.14, written by Peter Selinger 2001-2017
</metadata>
<g transform="translate(0.000000,235.000000) scale(0.100000,-0.100000)"
fill="#000000" stroke="none">
<path d="M980 2334 c-376 -67 -686 -296 -856 -634 -85 -170 -118 -312 -119
-505 0 -171 11 -247 53 -380 91 -284 317 -546 587 -682 73 -37 218 -89 271
-97 21 -4 46 -8 54 -11 58 -15 281 -22 340 -10 14 3 45 8 70 11 55 8 214 56
255 78 17 9 33 16 37 16 4 0 46 23 93 50 206 122 360 291 465 512 47 99 87
223 96 298 2 19 7 51 9 70 8 49 8 205 0 265 -23 184 -88 359 -194 520 -42 64
-174 207 -246 265 -135 110 -350 204 -540 237 -68 11 -303 10 -375 -3z"/>
</g>
</svg>
